<svg width="432" height="15" viewBox="0 0 432 15" fill="none" xmlns="http://www.w3.org/2000/svg">
  <path fill-rule="evenodd" clip-rule="evenodd" d="M432 0H0V15H8C8 10.5817 11.5817 7 16 7C20.4183 7 24 10.5817 24 15H33C33 10.5817 36.5817 7 41 7C45.4183 7 49 10.5817 49 15H58C58 10.5817 61.5817 7 66 7C70.4183 7 74 10.5817 74 15H83C83 10.5817 86.5817 7 91 7C95.4183 7 99 10.5817 99 15H108C108 10.5817 111.582 7 116 7C120.418 7 124 10.5817 124 15H133C133 10.5817 136.582 7 141 7C145.418 7 149 10.5817 149 15H158C158 10.5817 161.582 7 166 7C170.418 7 174 10.5817 174 15H183C183 10.5817 186.582 7 191 7C195.418 7 199 10.5817 199 15H208C208 10.5817 211.582 7 216 7C220.418 7 224 10.5817 224 15H233C233 10.5817 236.582 7 241 7C245.418 7 249 10.5817 249 15H258C258 10.5817 261.582 7 266 7C270.418 7 274 10.5817 274 15H283C283 10.5817 286.582 7 291 7C295.418 7 299 10.5817 299 15H308C308 10.5817 311.582 7 316 7C320.418 7 324 10.5817 324 15H333C333 10.5817 336.582 7 341 7C345.418 7 349 10.5817 349 15H358C358 10.5817 361.582 7 366 7C370.418 7 374 10.5817 374 15H383C383 10.5817 386.582 7 391 7C395.418 7 399 10.5817 399 15H408C408 10.5817 411.582 7 416 7C420.418 7 424 10.5817 424 15H432V0Z" fill="white"></path>
</svg>