<!DOCTYPE svg PUBLIC "-//W3C//DTD SVG 1.1//EN" "http://www.w3.org/Graphics/SVG/1.1/DTD/svg11.dtd">
<!-- Uploaded to: SVG Repo, www.svgrepo.com, Transformed by: SVG Repo Mixer Tools -->
<svg width="800px" height="800px" viewBox="-40 -40 480.00 480.00" fill="none" xmlns="http://www.w3.org/2000/svg">
<g id="SVGRepo_bgCarrier" stroke-width="0">
<path transform="translate(-40, -40), scale(15)" d="M16,31.27155649442883C19.013194897793174,30.400016685671485,19.634183854988798,26.337321509001974,22.13238983065377,24.44051049219313C24.538702945339313,22.61347090046683,28.88667713625386,23.34994382805421,30.085696340837103,20.57672017629375C31.266176562279362,17.846375526245396,28.29888350339833,15.131542356107337,27.380425540998434,12.302275590217581C26.46161381031817,9.471919057697828,27.06612043079725,5.8294539047865825,24.70878260507937,4.013389073054906C22.34789636893175,2.194590588420491,18.878741708076863,2.76379136896382,16,3.5349320344188637C13.581526983423398,4.182778587013487,12.279415246903868,6.636967435013556,10.128802402315781,7.918989775033653C7.6334585874639025,9.406512982533053,3.9311870092604297,9.093934812732593,2.4663008124020873,11.602634571058154C0.9748084089158169,14.156898950226338,2.243451923055167,17.369601648548425,2.930462762015491,20.246550069270583C3.6789039281545213,23.380746080188953,4.141466944871812,26.85410440009017,6.604483347109497,28.931819254524314C9.133334986460502,31.065070422062696,12.821822383744234,32.19081608626508,16,31.27155649442883" fill="#E5E5E5" strokewidth="0"/>
</g>
<g id="SVGRepo_tracerCarrier" stroke-linecap="round" stroke-linejoin="round" stroke="#CCCCCC" stroke-width="1.6"/>
<g id="SVGRepo_iconCarrier"> <path d="M292.774 89C215.844 106.143 285.026 197.233 343 112.679" stroke="#000000" stroke-opacity="0.9" stroke-width="16" stroke-linecap="round" stroke-linejoin="round"/> <path d="M228.832 142.858C212.797 151.995 196.254 156.533 177.684 158.373C161.155 160.005 137.669 145.369 124.401 147.861C121.556 148.399 112.949 160.727 108.949 162.874C62.7313 187.678 83.8525 158.888 86.5698 230.433C87.2552 248.467 86.9517 266.456 86.041 284.477C85.9774 285.654 83.9896 311 84.9737 311C86.0067 311 88.5282 302.442 88.7044 301.992C96.91 280.789 116.504 247.971 141.453 240.94C205.243 222.97 230.535 305.496 233.096 305.496C240.753 305.496 234.692 291.167 234.692 283.976C234.692 270.286 241.052 250.748 249.081 239.441C261.595 221.811 277.659 208.618 299.696 202.406C305.052 200.902 313.796 198.898 319.412 200.406C320.352 200.659 324.949 204.213 325.806 203.409C328.974 200.433 325.586 174.747 326.34 168.379" stroke="#000000" stroke-opacity="0.9" stroke-width="16" stroke-linecap="round" stroke-linejoin="round"/> <path d="M79.4055 174.385C45.5828 165.761 60.0954 144.887 60.0954 142.858" stroke="#000000" stroke-opacity="0.9" stroke-width="16" stroke-linecap="round" stroke-linejoin="round"/> </g>
</svg>