<?xml version="1.0" encoding="iso-8859-1"?>
<!-- Uploaded to: SVG Repo, www.svgrepo.com, Generator: SVG Repo Mixer Tools -->
<svg version="1.1" id="Layer_1" xmlns="http://www.w3.org/2000/svg" xmlns:xlink="http://www.w3.org/1999/xlink" 
	 viewBox="0 0 512 512" xml:space="preserve">
<polygon style="fill:#00C37A;" points="478.609,33.391 478.609,0 33.391,0 33.391,33.391 0,33.391 0,478.609 33.391,478.609 
	33.391,512 478.609,512 478.609,478.609 512,478.609 512,33.391 "/>
<polygon style="fill:#60DC4D;" points="33.391,0 33.391,33.391 0,33.391 0,478.609 33.391,478.609 33.391,512 256,512 256,478.609 
	256,33.391 256,0 "/>
<polygon style="fill:#FFDE46;" points="345.043,200.348 345.043,233.739 311.652,233.739 311.652,345.043 345.043,345.043 
	345.043,378.435 512,378.435 512,200.348 "/>
<rect y="33.391" width="33.391" height="445.217"/>
<polygon points="478.609,33.391 478.609,66.783 66.783,66.783 66.783,100.174 478.609,100.174 478.609,200.348 345.043,200.348 
	345.043,233.739 478.609,233.739 478.609,345.043 345.043,345.043 345.043,378.435 478.609,378.435 478.609,478.609 512,478.609 
	512,33.391 "/>
<rect x="33.391" y="478.609" width="445.217" height="33.391"/>
<rect x="33.391" width="445.217" height="33.391"/>
<rect x="311.652" y="233.739" width="33.391" height="111.304"/>
<rect x="378.435" y="267.13" width="44.522" height="44.522"/>
</svg>